<svg xmlns="http://www.w3.org/2000/svg" xmlns:xlink="http://www.w3.org/1999/xlink" width="100" zoomAndPan="magnify" viewBox="0 0 75 69.749997" height="93" preserveAspectRatio="xMidYMid meet" version="1.0"><defs><g/><clipPath id="3ad82fb741"><path d="M 5.734375 13.417969 L 17.550781 13.417969 L 17.550781 23.414062 L 5.734375 23.414062 Z M 5.734375 13.417969 " clip-rule="nonzero"/></clipPath><clipPath id="2c01bad5c9"><path d="M 59.796875 38.085938 L 65.25 38.085938 L 65.25 42.628906 L 59.796875 42.628906 Z M 59.796875 38.085938 " clip-rule="nonzero"/></clipPath></defs><g clip-path="url(#3ad82fb741)"><path fill="#df8575" d="M 9.585938 13.5 C 9.574219 13.449219 9.523438 13.417969 9.472656 13.429688 C 9.441406 13.4375 9.410156 13.46875 9.40625 13.5 C 9.238281 14.128906 8.835938 15.285156 7.941406 15.992188 C 7.320312 16.480469 6.59375 16.820312 5.824219 16.980469 C 5.773438 16.992188 5.738281 17.042969 5.75 17.09375 C 5.757812 17.128906 5.78125 17.15625 5.816406 17.167969 C 6.441406 17.34375 7.53125 17.734375 8.082031 18.394531 C 8.519531 18.914062 8.90625 20.222656 9.074219 20.863281 C 9.089844 20.914062 9.140625 20.945312 9.191406 20.929688 C 9.222656 20.921875 9.246094 20.894531 9.253906 20.863281 C 9.429688 20.214844 9.882812 18.867188 10.726562 18.296875 C 11.480469 17.785156 12.320312 17.527344 12.796875 17.414062 C 12.847656 17.402344 12.875 17.347656 12.863281 17.296875 C 12.855469 17.265625 12.832031 17.238281 12.800781 17.230469 C 12.226562 17.058594 11.164062 16.671875 10.726562 16.089844 C 10.046875 15.183594 9.726562 14.097656 9.585938 13.5 Z M 14.332031 18.867188 C 14.324219 18.835938 14.296875 18.816406 14.265625 18.824219 C 14.242188 18.828125 14.226562 18.84375 14.222656 18.867188 C 14.125 19.25 13.875 19.957031 13.328125 20.386719 C 12.949219 20.6875 12.503906 20.894531 12.03125 20.992188 C 12 20.996094 11.980469 21.027344 11.988281 21.058594 C 11.992188 21.078125 12.007812 21.097656 12.027344 21.101562 C 12.410156 21.214844 13.078125 21.449219 13.414062 21.851562 C 13.683594 22.171875 13.917969 22.972656 14.023438 23.363281 C 14.03125 23.394531 14.0625 23.414062 14.09375 23.40625 C 14.113281 23.402344 14.125 23.386719 14.132812 23.363281 C 14.242188 22.96875 14.515625 22.144531 15.03125 21.796875 C 15.496094 21.480469 16.007812 21.324219 16.296875 21.253906 C 16.328125 21.246094 16.347656 21.214844 16.339844 21.183594 C 16.332031 21.164062 16.320312 21.148438 16.300781 21.140625 C 15.949219 21.035156 15.300781 20.800781 15.03125 20.441406 C 14.617188 19.898438 14.417969 19.230469 14.332031 18.867188 Z M 16.210938 14.5 C 16.207031 14.480469 16.183594 14.46875 16.164062 14.472656 C 16.152344 14.476562 16.140625 14.484375 16.136719 14.5 C 16.070312 14.757812 15.90625 15.222656 15.539062 15.511719 C 15.289062 15.710938 14.992188 15.847656 14.679688 15.914062 C 14.660156 15.917969 14.648438 15.9375 14.648438 15.957031 C 14.652344 15.972656 14.664062 15.984375 14.679688 15.988281 C 14.933594 16.058594 15.375 16.214844 15.597656 16.484375 C 15.777344 16.695312 15.933594 17.230469 16.003906 17.488281 C 16.007812 17.507812 16.027344 17.519531 16.046875 17.511719 C 16.0625 17.511719 16.070312 17.5 16.074219 17.488281 C 16.144531 17.222656 16.328125 16.679688 16.671875 16.445312 C 16.976562 16.238281 17.320312 16.136719 17.515625 16.089844 C 17.535156 16.082031 17.546875 16.0625 17.542969 16.042969 C 17.539062 16.027344 17.53125 16.019531 17.515625 16.011719 C 17.285156 15.941406 16.851562 15.785156 16.675781 15.546875 C 16.402344 15.183594 16.265625 14.742188 16.210938 14.5 Z M 16.210938 14.5 " fill-opacity="1" fill-rule="nonzero"/></g><g fill="#df8575" fill-opacity="1"><g transform="translate(25.282041, 31.974931)"><g><path d="M 17.289062 1.320312 C 16.644531 0.9375 16.144531 -0.207031 16.144531 -2.050781 C 16.144531 -8 19.984375 -13.859375 19.984375 -16.878906 C 19.984375 -18.519531 19.164062 -19.457031 17.902344 -19.457031 C 16.996094 -19.457031 15.765625 -19.105469 14.359375 -17.316406 C 14.503906 -19.601562 13.363281 -20.511719 12.128906 -20.511719 C 10.753906 -20.511719 9.257812 -19.457031 8.117188 -17.464844 C 8.027344 -19.484375 6.210938 -20.511719 4.335938 -20.511719 C -0.851562 -20.511719 -4.980469 -15.910156 -4.980469 -11.484375 C -4.980469 -8.730469 -3.253906 -7.121094 -1.378906 -7.121094 C 0.617188 -7.121094 1.464844 -8.730469 0.792969 -9.785156 C 0.175781 -9.257812 -0.527344 -8.730469 -1.847656 -8.730469 C -3.371094 -8.730469 -4.160156 -9.785156 -4.160156 -11.660156 C -4.160156 -15.589844 -0.265625 -19.660156 3.722656 -19.660156 C 4.921875 -19.660156 5.625 -18.957031 5.625 -17.667969 C 5.625 -14.417969 2.636719 -10.871094 2.636719 -4.074219 C 2.636719 -2.609375 3.3125 -0.441406 4.953125 0 C 4.777344 -0.792969 4.628906 -1.699219 4.628906 -2.753906 C 4.628906 -7.882812 8.4375 -19.515625 11.425781 -19.515625 C 11.660156 -19.515625 11.867188 -19.367188 11.867188 -18.957031 C 11.867188 -15.707031 8.144531 -10.050781 8.144531 -2.871094 C 8.144531 -0.851562 8.585938 0.9375 10.460938 1.289062 C 10.3125 0.558594 10.226562 -0.761719 10.226562 -1.757812 C 10.226562 -7.792969 14.183594 -18.371094 17.113281 -18.371094 C 17.347656 -18.371094 17.550781 -18.195312 17.550781 -17.875 C 17.550781 -14.652344 13.742188 -8.320312 13.742188 -2.753906 C 13.742188 -0.175781 15.0625 1.671875 17.289062 1.320312 Z M 17.289062 1.320312 "/></g></g></g><g fill="#df8575" fill-opacity="1"><g transform="translate(43.943272, 31.974931)"><g><path d="M 2.082031 0 C 3.632812 0 4.601562 -2.433594 5.949219 -5.070312 C 5.832031 -4.570312 5.800781 -4.074219 5.800781 -3.605469 C 5.800781 -1.789062 6.621094 0 7.648438 0 C 8.878906 0 10.429688 -2.636719 11.925781 -6.476562 L 11.191406 -6.476562 C 10.253906 -4.277344 9.492188 -2.753906 8.261719 -1.289062 C 8.175781 -1.640625 8.175781 -2.023438 8.175781 -2.492188 C 8.175781 -4.894531 8.671875 -8.085938 10.722656 -10.839844 C 10.371094 -10.988281 9.992188 -11.046875 9.582031 -11.046875 C 9.054688 -11.046875 8.585938 -10.839844 8.175781 -10.488281 C 7.734375 -10.8125 7.179688 -11.046875 6.417969 -11.046875 C 2.375 -11.046875 0 -6.09375 0 -2.988281 C 0 -1.085938 0.792969 0 2.082031 0 Z M 2.609375 -0.9375 C 1.90625 -4.101562 4.308594 -11.484375 7.707031 -10.019531 C 6.007812 -8 4.308594 -2.460938 2.609375 -0.9375 Z M 2.609375 -0.9375 "/></g></g></g><g fill="#df8575" fill-opacity="1"><g transform="translate(54.343182, 31.974931)"><g><path d="M 3.867188 0 C 5.070312 0 7.148438 -3.488281 8.234375 -6.476562 L 7.5 -6.476562 C 6.886719 -4.921875 5.507812 -1.933594 3.839844 -0.644531 C 3.78125 -2.695312 5.859375 -5.449219 5.859375 -7.003906 C 5.859375 -8.4375 4.511719 -9.230469 2.988281 -10.050781 C 3.3125 -10.898438 3.632812 -11.660156 3.78125 -12.160156 C 3.632812 -12.277344 3.398438 -12.335938 3.164062 -12.335938 C 2.402344 -12.335938 1.378906 -11.691406 1.378906 -10.519531 C 1.378906 -10.050781 1.671875 -9.816406 2.023438 -9.640625 C 1.699219 -8.703125 1.320312 -7.734375 0.792969 -6.476562 L 1.523438 -6.476562 C 1.847656 -7.324219 2.285156 -8.351562 2.695312 -9.347656 C 3.195312 -9.113281 3.632812 -8.820312 3.632812 -8.117188 C 3.632812 -6.945312 2.050781 -4.453125 2.050781 -2.402344 C 2.050781 -1.40625 2.609375 0 3.867188 0 Z M 3.867188 0 "/></g></g></g><g fill="#df8575" fill-opacity="1"><g transform="translate(61.051858, 31.974931)"><g><path d="M 5.421875 -12.777344 C 6.621094 -12.777344 7.296875 -13.773438 7.296875 -14.652344 C 7.296875 -15.207031 6.945312 -15.824219 6.242188 -15.824219 C 5.273438 -15.824219 3.957031 -14.652344 3.546875 -14.796875 C 3.546875 -13.390625 4.484375 -12.777344 5.421875 -12.777344 Z M 0.558594 -4.277344 C 0.558594 -1.789062 1.464844 0 2.84375 0 C 3.632812 0 5.246094 -2.785156 6.621094 -6.476562 L 5.890625 -6.476562 C 5.246094 -4.835938 4.074219 -2.226562 2.988281 -1.027344 C 2.753906 -1.640625 2.753906 -2.460938 2.753906 -3.222656 C 2.753906 -5.273438 3.664062 -8.292969 5.246094 -10.839844 C 4.921875 -10.988281 4.570312 -11.046875 4.160156 -11.046875 C 2.402344 -11.046875 0.558594 -8.085938 0.558594 -4.277344 Z M 0.558594 -4.277344 "/></g></g></g><g clip-path="url(#2c01bad5c9)"><path fill="#df8575" d="M 61.578125 38.125 C 61.570312 38.101562 61.546875 38.085938 61.523438 38.09375 C 61.507812 38.097656 61.496094 38.109375 61.492188 38.125 C 61.417969 38.410156 61.230469 38.933594 60.816406 39.257812 C 60.53125 39.480469 60.195312 39.632812 59.839844 39.707031 C 59.816406 39.710938 59.800781 39.734375 59.808594 39.757812 C 59.8125 39.773438 59.824219 39.785156 59.839844 39.789062 C 60.128906 39.871094 60.628906 40.046875 60.882812 40.347656 C 61.085938 40.585938 61.261719 41.179688 61.339844 41.472656 C 61.347656 41.492188 61.371094 41.507812 61.394531 41.5 C 61.410156 41.496094 61.421875 41.484375 61.425781 41.472656 C 61.503906 41.175781 61.714844 40.566406 62.101562 40.304688 C 62.449219 40.070312 62.835938 39.957031 63.054688 39.902344 C 63.082031 39.898438 63.09375 39.875 63.085938 39.851562 C 63.082031 39.835938 63.074219 39.824219 63.058594 39.820312 C 62.796875 39.742188 62.304688 39.566406 62.101562 39.300781 C 61.789062 38.890625 61.640625 38.394531 61.578125 38.125 Z M 63.765625 40.5625 C 63.761719 40.550781 63.746094 40.539062 63.734375 40.542969 C 63.722656 40.546875 63.71875 40.554688 63.714844 40.5625 C 63.667969 40.738281 63.554688 41.058594 63.300781 41.253906 C 63.125 41.390625 62.921875 41.484375 62.703125 41.53125 C 62.691406 41.53125 62.679688 41.546875 62.683594 41.558594 C 62.6875 41.570312 62.691406 41.578125 62.703125 41.582031 C 62.878906 41.628906 63.1875 41.738281 63.339844 41.921875 C 63.464844 42.066406 63.574219 42.429688 63.621094 42.609375 C 63.625 42.621094 63.640625 42.628906 63.652344 42.628906 C 63.664062 42.625 63.667969 42.617188 63.671875 42.609375 C 63.722656 42.425781 63.847656 42.054688 64.085938 41.894531 C 64.300781 41.753906 64.539062 41.679688 64.671875 41.648438 C 64.683594 41.644531 64.695312 41.632812 64.691406 41.617188 C 64.6875 41.609375 64.679688 41.601562 64.671875 41.597656 C 64.511719 41.550781 64.210938 41.441406 64.085938 41.28125 C 63.894531 41.03125 63.804688 40.730469 63.765625 40.5625 Z M 64.628906 38.578125 C 64.628906 38.570312 64.617188 38.5625 64.609375 38.566406 C 64.601562 38.566406 64.597656 38.570312 64.597656 38.578125 C 64.566406 38.695312 64.488281 38.90625 64.320312 39.039062 C 64.207031 39.128906 64.070312 39.191406 63.925781 39.222656 C 63.914062 39.222656 63.910156 39.230469 63.910156 39.242188 C 63.914062 39.25 63.917969 39.253906 63.925781 39.253906 C 64.042969 39.289062 64.246094 39.359375 64.347656 39.480469 C 64.429688 39.578125 64.503906 39.820312 64.535156 39.9375 C 64.539062 39.945312 64.546875 39.949219 64.554688 39.949219 C 64.5625 39.949219 64.566406 39.941406 64.566406 39.9375 C 64.601562 39.816406 64.683594 39.570312 64.84375 39.464844 C 64.984375 39.367188 65.140625 39.320312 65.230469 39.300781 C 65.242188 39.296875 65.246094 39.289062 65.246094 39.28125 C 65.242188 39.273438 65.238281 39.269531 65.234375 39.265625 C 65.125 39.234375 64.925781 39.164062 64.84375 39.054688 C 64.71875 38.890625 64.65625 38.691406 64.628906 38.578125 Z M 64.628906 38.578125 " fill-opacity="1" fill-rule="nonzero"/></g><g fill="#df8575" fill-opacity="1"><g transform="translate(8.629339, 49.251793)"><g><path d="M 5.976562 1.320312 C 8.46875 1.320312 11.515625 -1.789062 13.449219 -6.476562 L 12.746094 -6.476562 C 11.367188 -3.164062 8.410156 0.558594 5.976562 0.558594 C 4.6875 0.558594 3.839844 -1.40625 3.839844 -4.21875 C 3.839844 -6.035156 4.191406 -8.085938 4.804688 -10.078125 C 9.582031 -10.605469 14.828125 -14.769531 14.828125 -18.253906 C 14.828125 -19.574219 13.832031 -20.511719 12.363281 -20.511719 C 8.320312 -20.511719 4.191406 -16.144531 2.402344 -10.871094 C -0.175781 -11.191406 -1.757812 -12.453125 -1.757812 -14.445312 C -1.757812 -17.199219 1.40625 -18.136719 3.105469 -17.757812 C 3.105469 -18.8125 2.375 -19.191406 1.523438 -19.191406 C -0.558594 -19.191406 -2.636719 -17.140625 -2.636719 -14.828125 C -2.636719 -12.101562 -0.851562 -10.519531 2.167969 -10.136719 C 1.730469 -8.644531 1.496094 -7.089844 1.496094 -5.539062 C 1.496094 -1.757812 3.371094 1.320312 5.976562 1.320312 Z M 5.070312 -10.871094 C 6.652344 -15.558594 9.582031 -19.75 12.363281 -19.75 C 13.390625 -19.75 14.09375 -19.164062 14.09375 -18.253906 C 14.09375 -15.296875 9.347656 -11.515625 5.070312 -10.871094 Z M 5.070312 -10.871094 "/></g></g></g><g fill="#df8575" fill-opacity="1"><g transform="translate(20.552607, 49.251793)"><g><path d="M 3.3125 0 C 5.714844 0 7.941406 -4.425781 8.703125 -6.476562 L 7.96875 -6.476562 C 7.003906 -4.277344 5.15625 -0.851562 3.398438 -0.851562 C 2.695312 -0.851562 2.460938 -1.992188 2.460938 -3.164062 C 2.460938 -3.722656 2.519531 -4.277344 2.609375 -4.804688 C 4.894531 -5.539062 7.472656 -8.175781 7.472656 -9.726562 C 7.472656 -10.578125 7.003906 -11.046875 5.976562 -11.046875 C 2.695312 -11.046875 0.175781 -7.089844 0.175781 -4.335938 C 0.175781 -1.320312 1.757812 0 3.3125 0 Z M 2.8125 -5.683594 C 3.574219 -8.292969 5.273438 -10.285156 6.300781 -10.285156 C 6.59375 -10.285156 6.710938 -10.078125 6.710938 -9.785156 C 6.710938 -8.820312 5.097656 -6.710938 2.8125 -5.683594 Z M 2.8125 -5.683594 "/></g></g></g><g fill="#df8575" fill-opacity="1"><g transform="translate(27.730004, 49.251793)"><g><path d="M 3.867188 0 C 5.070312 0 7.148438 -3.488281 8.234375 -6.476562 L 7.5 -6.476562 C 6.886719 -4.921875 5.507812 -1.933594 3.839844 -0.644531 C 3.78125 -2.695312 5.859375 -5.449219 5.859375 -7.003906 C 5.859375 -8.4375 4.511719 -9.230469 2.988281 -10.050781 C 3.3125 -10.898438 3.632812 -11.660156 3.78125 -12.160156 C 3.632812 -12.277344 3.398438 -12.335938 3.164062 -12.335938 C 2.402344 -12.335938 1.378906 -11.691406 1.378906 -10.519531 C 1.378906 -10.050781 1.671875 -9.816406 2.023438 -9.640625 C 1.699219 -8.703125 1.320312 -7.734375 0.792969 -6.476562 L 1.523438 -6.476562 C 1.847656 -7.324219 2.285156 -8.351562 2.695312 -9.347656 C 3.195312 -9.113281 3.632812 -8.820312 3.632812 -8.117188 C 3.632812 -6.945312 2.050781 -4.453125 2.050781 -2.402344 C 2.050781 -1.40625 2.609375 0 3.867188 0 Z M 3.867188 0 "/></g></g></g><g fill="#df8575" fill-opacity="1"><g transform="translate(34.438679, 49.251793)"><g><path d="M 3.3125 0 C 5.714844 0 7.941406 -4.425781 8.703125 -6.476562 L 7.96875 -6.476562 C 7.003906 -4.277344 5.15625 -0.851562 3.398438 -0.851562 C 2.695312 -0.851562 2.460938 -1.992188 2.460938 -3.164062 C 2.460938 -3.722656 2.519531 -4.277344 2.609375 -4.804688 C 4.894531 -5.539062 7.472656 -8.175781 7.472656 -9.726562 C 7.472656 -10.578125 7.003906 -11.046875 5.976562 -11.046875 C 2.695312 -11.046875 0.175781 -7.089844 0.175781 -4.335938 C 0.175781 -1.320312 1.757812 0 3.3125 0 Z M 2.8125 -5.683594 C 3.574219 -8.292969 5.273438 -10.285156 6.300781 -10.285156 C 6.59375 -10.285156 6.710938 -10.078125 6.710938 -9.785156 C 6.710938 -8.820312 5.097656 -6.710938 2.8125 -5.683594 Z M 2.8125 -5.683594 "/></g></g></g><g fill="#df8575" fill-opacity="1"><g transform="translate(41.616076, 49.251793)"><g><path d="M 5.214844 -12.777344 C 6.417969 -12.777344 7.089844 -13.773438 7.089844 -14.652344 C 7.089844 -15.207031 6.738281 -15.824219 6.035156 -15.824219 C 5.070312 -15.824219 3.75 -14.652344 3.339844 -14.796875 C 3.339844 -13.390625 4.277344 -12.777344 5.214844 -12.777344 Z M -4.660156 5.097656 C -4.660156 5.714844 -4.335938 6.09375 -3.78125 6.09375 C -2.199219 6.09375 0 4.015625 1.347656 0.820312 C 2.695312 1.113281 3.546875 2.871094 3.429688 4.921875 C 4.335938 4.777344 5.097656 4.21875 5.097656 3.515625 C 5.097656 1.933594 3.605469 0.382812 1.613281 0.0585938 C 1.730469 -0.265625 1.847656 -0.585938 1.933594 -0.9375 C 3.136719 -5.304688 3.808594 -8.730469 5.273438 -10.78125 C 4.894531 -10.957031 4.453125 -11.046875 3.957031 -11.046875 C 1.4375 -11.046875 1.027344 -7.003906 0.03125 -2.988281 C -0.292969 -1.699219 -0.617188 -0.585938 -0.9375 0.324219 C -2.929688 1.054688 -4.660156 2.84375 -4.660156 5.097656 Z M -3.984375 5.246094 C -3.808594 3.28125 -2.636719 1.992188 -1.289062 1.320312 C -2.109375 3.429688 -2.960938 4.542969 -3.984375 5.246094 Z M -3.984375 5.246094 "/></g></g></g><g fill="#df8575" fill-opacity="1"><g transform="translate(45.863924, 49.251793)"><g><path d="M 2.082031 0 C 3.632812 0 4.601562 -2.433594 5.949219 -5.070312 C 5.832031 -4.570312 5.800781 -4.074219 5.800781 -3.605469 C 5.800781 -1.789062 6.621094 0 7.648438 0 C 8.878906 0 10.429688 -2.636719 11.925781 -6.476562 L 11.191406 -6.476562 C 10.253906 -4.277344 9.492188 -2.753906 8.261719 -1.289062 C 8.175781 -1.640625 8.175781 -2.023438 8.175781 -2.492188 C 8.175781 -4.894531 8.671875 -8.085938 10.722656 -10.839844 C 10.371094 -10.988281 9.992188 -11.046875 9.582031 -11.046875 C 9.054688 -11.046875 8.585938 -10.839844 8.175781 -10.488281 C 7.734375 -10.8125 7.179688 -11.046875 6.417969 -11.046875 C 2.375 -11.046875 0 -6.09375 0 -2.988281 C 0 -1.085938 0.792969 0 2.082031 0 Z M 2.609375 -0.9375 C 1.90625 -4.101562 4.308594 -11.484375 7.707031 -10.019531 C 6.007812 -8 4.308594 -2.460938 2.609375 -0.9375 Z M 2.609375 -0.9375 "/></g></g></g></svg>