<svg xmlns="http://www.w3.org/2000/svg" xmlns:xlink="http://www.w3.org/1999/xlink" width="60" zoomAndPan="magnify" viewBox="0 0 45 44.999999" height="60" preserveAspectRatio="xMidYMid meet" version="1.0"><defs><clipPath id="2f329ef520"><path d="M 0 7.070312 L 45 7.070312 L 45 44.570312 L 0 44.570312 Z M 0 7.070312 " clip-rule="nonzero"/></clipPath><clipPath id="b8400a7eaa"><path d="M 0 7.070312 L 45 7.070312 L 45 44.570312 L 0 44.570312 Z M 0 7.070312 " clip-rule="nonzero"/></clipPath></defs><g clip-path="url(#2f329ef520)"><path fill="#de8374" d="M 44.484375 24.546875 L 38.164062 18.976562 L 41.445312 12.976562 C 41.6875 12.535156 41.714844 12.011719 41.515625 11.546875 C 41.320312 11.078125 40.929688 10.738281 40.441406 10.609375 L 28.214844 7.324219 C 27.269531 7.066406 26.253906 7.480469 25.746094 8.328125 L 22.503906 13.730469 L 19.265625 8.328125 C 18.757812 7.480469 17.742188 7.066406 16.792969 7.324219 L 4.566406 10.609375 C 4.082031 10.738281 3.691406 11.078125 3.492188 11.546875 C 3.296875 12.011719 3.320312 12.535156 3.5625 12.976562 L 6.84375 18.976562 L 0.523438 24.546875 C 0.160156 24.863281 0.00390625 25.339844 0.101562 25.8125 C 0.199219 26.289062 0.527344 26.660156 0.988281 26.808594 L 5.75 28.347656 L 5.75 38.132812 C 5.75 38.84375 6.199219 39.460938 6.871094 39.671875 L 22.371094 44.550781 C 22.382812 44.554688 22.398438 44.558594 22.410156 44.5625 C 22.417969 44.5625 22.425781 44.566406 22.433594 44.566406 C 22.457031 44.570312 22.480469 44.570312 22.503906 44.570312 C 22.527344 44.570312 22.550781 44.570312 22.574219 44.566406 C 22.582031 44.566406 22.589844 44.5625 22.597656 44.5625 C 22.613281 44.558594 22.625 44.554688 22.636719 44.550781 L 38.136719 39.671875 C 38.808594 39.460938 39.257812 38.84375 39.257812 38.132812 L 39.257812 28.347656 L 44.023438 26.808594 C 44.480469 26.660156 44.8125 26.289062 44.910156 25.8125 C 45.007812 25.339844 44.847656 24.863281 44.484375 24.546875 Z M 22.503906 23.316406 L 16.113281 21.320312 L 8.96875 19.089844 L 22.503906 15.082031 L 36.039062 19.089844 L 29.082031 21.261719 Z M 26.515625 8.796875 C 26.816406 8.292969 27.421875 8.046875 27.984375 8.199219 L 40.210938 11.484375 C 40.425781 11.542969 40.601562 11.695312 40.691406 11.902344 C 40.777344 12.109375 40.765625 12.34375 40.65625 12.539062 L 37.378906 18.539062 L 23.191406 14.339844 Z M 4.320312 11.902344 C 4.40625 11.695312 4.582031 11.542969 4.796875 11.484375 L 17.023438 8.199219 C 17.136719 8.167969 17.25 8.152344 17.359375 8.152344 C 17.816406 8.152344 18.253906 8.390625 18.496094 8.796875 L 21.816406 14.339844 L 18.386719 15.355469 L 7.632812 18.539062 L 4.351562 12.539062 C 4.242188 12.34375 4.230469 12.109375 4.320312 11.902344 Z M 0.980469 25.628906 C 0.964844 25.558594 0.949219 25.375 1.113281 25.230469 L 7.519531 19.585938 L 21.667969 24.003906 L 15.96875 29.886719 C 15.601562 30.269531 15.054688 30.40625 14.550781 30.242188 L 1.261719 25.945312 C 1.050781 25.878906 0.996094 25.703125 0.980469 25.628906 Z M 6.648438 38.132812 L 6.648438 28.640625 L 14.277344 31.105469 C 14.511719 31.183594 14.746094 31.21875 14.980469 31.21875 C 15.585938 31.21875 16.175781 30.976562 16.613281 30.523438 L 22.054688 24.902344 L 22.054688 43.503906 L 7.140625 38.808594 C 6.847656 38.714844 6.648438 38.445312 6.648438 38.132812 Z M 38.359375 38.132812 C 38.359375 38.445312 38.164062 38.714844 37.867188 38.808594 L 22.953125 43.503906 L 22.953125 24.902344 L 28.394531 30.523438 C 28.835938 30.976562 29.421875 31.21875 30.027344 31.21875 C 30.261719 31.21875 30.5 31.179688 30.730469 31.105469 L 38.359375 28.640625 Z M 44.027344 25.628906 C 44.015625 25.703125 43.957031 25.878906 43.75 25.945312 L 30.457031 30.242188 C 29.953125 30.40625 29.410156 30.269531 29.039062 29.886719 L 23.339844 24.003906 L 37.492188 19.585938 L 43.894531 25.230469 C 44.058594 25.375 44.042969 25.558594 44.027344 25.628906 Z M 44.027344 25.628906 " fill-opacity="1" fill-rule="nonzero"/></g><path fill="#de8374" d="M 24.371094 35.925781 L 24.371094 40.644531 C 24.371094 40.933594 24.503906 41.199219 24.738281 41.375 C 24.894531 41.488281 25.078125 41.550781 25.265625 41.550781 C 25.355469 41.550781 25.449219 41.535156 25.539062 41.507812 L 32.390625 39.351562 C 32.769531 39.230469 33.023438 38.882812 33.023438 38.484375 L 33.023438 33.667969 C 33.023438 33.378906 32.882812 33.105469 32.652344 32.933594 C 32.417969 32.765625 32.117188 32.71875 31.84375 32.808594 L 24.992188 35.0625 C 24.621094 35.1875 24.371094 35.53125 24.371094 35.925781 Z M 32.121094 33.667969 L 32.125 38.484375 L 25.269531 40.644531 L 25.269531 35.925781 Z M 32.121094 33.667969 " fill-opacity="1" fill-rule="nonzero"/><g clip-path="url(#b8400a7eaa)"><path fill="#de8374" d="M 44.484375 24.546875 L 38.164062 18.976562 L 41.445312 12.976562 C 41.6875 12.535156 41.714844 12.011719 41.515625 11.546875 C 41.320312 11.078125 40.929688 10.738281 40.441406 10.609375 L 28.214844 7.324219 C 27.269531 7.066406 26.253906 7.480469 25.746094 8.328125 L 22.503906 13.730469 L 19.265625 8.328125 C 18.757812 7.480469 17.742188 7.066406 16.792969 7.324219 L 4.566406 10.609375 C 4.082031 10.738281 3.691406 11.078125 3.492188 11.546875 C 3.296875 12.011719 3.320312 12.535156 3.5625 12.976562 L 6.84375 18.976562 L 0.523438 24.546875 C 0.160156 24.863281 0.00390625 25.339844 0.101562 25.8125 C 0.199219 26.289062 0.527344 26.660156 0.988281 26.808594 L 5.75 28.347656 L 5.75 38.132812 C 5.75 38.84375 6.199219 39.460938 6.871094 39.671875 L 22.371094 44.550781 C 22.382812 44.554688 22.398438 44.558594 22.410156 44.5625 C 22.417969 44.5625 22.425781 44.566406 22.433594 44.566406 C 22.457031 44.570312 22.480469 44.570312 22.503906 44.570312 C 22.527344 44.570312 22.550781 44.570312 22.574219 44.566406 C 22.582031 44.566406 22.589844 44.5625 22.597656 44.5625 C 22.613281 44.558594 22.625 44.554688 22.636719 44.550781 L 38.136719 39.671875 C 38.808594 39.460938 39.257812 38.84375 39.257812 38.132812 L 39.257812 28.347656 L 44.023438 26.808594 C 44.480469 26.660156 44.8125 26.289062 44.910156 25.8125 C 45.007812 25.339844 44.847656 24.863281 44.484375 24.546875 Z M 22.503906 23.316406 L 16.113281 21.320312 L 8.96875 19.089844 L 22.503906 15.082031 L 36.039062 19.089844 L 29.082031 21.261719 Z M 26.515625 8.796875 C 26.816406 8.292969 27.421875 8.046875 27.984375 8.199219 L 40.210938 11.484375 C 40.425781 11.542969 40.601562 11.695312 40.691406 11.902344 C 40.777344 12.109375 40.765625 12.34375 40.65625 12.539062 L 37.378906 18.539062 L 23.191406 14.339844 Z M 4.320312 11.902344 C 4.40625 11.695312 4.582031 11.542969 4.796875 11.484375 L 17.023438 8.199219 C 17.136719 8.167969 17.25 8.152344 17.359375 8.152344 C 17.816406 8.152344 18.253906 8.390625 18.496094 8.796875 L 21.816406 14.339844 L 18.386719 15.355469 L 7.632812 18.539062 L 4.351562 12.539062 C 4.242188 12.34375 4.230469 12.109375 4.320312 11.902344 Z M 0.980469 25.628906 C 0.964844 25.558594 0.949219 25.375 1.113281 25.230469 L 7.519531 19.585938 L 21.667969 24.003906 L 15.96875 29.886719 C 15.601562 30.269531 15.054688 30.40625 14.550781 30.242188 L 1.261719 25.945312 C 1.050781 25.878906 0.996094 25.703125 0.980469 25.628906 Z M 6.648438 38.132812 L 6.648438 28.640625 L 14.277344 31.105469 C 14.511719 31.183594 14.746094 31.21875 14.980469 31.21875 C 15.585938 31.21875 16.175781 30.976562 16.613281 30.523438 L 22.054688 24.902344 L 22.054688 43.503906 L 7.140625 38.808594 C 6.847656 38.714844 6.648438 38.445312 6.648438 38.132812 Z M 38.359375 38.132812 C 38.359375 38.445312 38.164062 38.714844 37.867188 38.808594 L 22.953125 43.503906 L 22.953125 24.902344 L 28.394531 30.523438 C 28.835938 30.976562 29.421875 31.21875 30.027344 31.21875 C 30.261719 31.21875 30.5 31.179688 30.730469 31.105469 L 38.359375 28.640625 Z M 44.027344 25.628906 C 44.015625 25.703125 43.957031 25.878906 43.75 25.945312 L 30.457031 30.242188 C 29.953125 30.40625 29.410156 30.269531 29.039062 29.886719 L 23.339844 24.003906 L 37.492188 19.585938 L 43.894531 25.230469 C 44.058594 25.375 44.042969 25.558594 44.027344 25.628906 Z M 44.027344 25.628906 " fill-opacity="1" fill-rule="nonzero"/></g><path fill="#de8374" d="M 24.371094 35.925781 L 24.371094 40.644531 C 24.371094 40.933594 24.503906 41.199219 24.738281 41.375 C 24.894531 41.488281 25.078125 41.550781 25.265625 41.550781 C 25.355469 41.550781 25.449219 41.535156 25.539062 41.507812 L 32.390625 39.351562 C 32.769531 39.230469 33.023438 38.882812 33.023438 38.484375 L 33.023438 33.667969 C 33.023438 33.378906 32.882812 33.105469 32.652344 32.933594 C 32.417969 32.765625 32.117188 32.71875 31.84375 32.808594 L 24.992188 35.0625 C 24.621094 35.1875 24.371094 35.53125 24.371094 35.925781 Z M 32.121094 33.667969 L 32.125 38.484375 L 25.269531 40.644531 L 25.269531 35.925781 Z M 32.121094 33.667969 " fill-opacity="1" fill-rule="nonzero"/></svg>