<svg xmlns="http://www.w3.org/2000/svg" xmlns:xlink="http://www.w3.org/1999/xlink" width="60" zoomAndPan="magnify" viewBox="0 0 45 44.999999" height="60" preserveAspectRatio="xMidYMid meet" version="1.0"><defs><clipPath id="2d26c4abc5"><path d="M 19 1.996094 L 42 1.996094 L 42 23 L 19 23 Z M 19 1.996094 " clip-rule="nonzero"/></clipPath><clipPath id="898e65e9fe"><path d="M 0 26 L 15 26 L 15 43.246094 L 0 43.246094 Z M 0 26 " clip-rule="nonzero"/></clipPath></defs><g clip-path="url(#2d26c4abc5)"><path fill="#de8374" d="M 23.261719 16.242188 C 25.019531 18.097656 27.066406 19.6875 29.046875 21.226562 C 29.394531 21.492188 29.742188 21.765625 30.089844 22.035156 L 30.511719 22.367188 L 30.933594 22.035156 C 31.28125 21.765625 31.628906 21.492188 31.976562 21.226562 C 33.957031 19.6875 36.003906 18.097656 37.761719 16.242188 C 38.703125 15.25 39.59375 14.105469 40.480469 12.75 C 41.667969 10.949219 42.101562 9.089844 41.78125 7.226562 C 41.324219 4.621094 39.398438 2.613281 36.863281 2.117188 C 36.449219 2.035156 36.03125 1.992188 35.613281 1.992188 C 33.550781 1.992188 31.679688 2.960938 30.511719 4.605469 C 29.34375 2.960938 27.472656 1.992188 25.410156 1.992188 C 24.992188 1.992188 24.574219 2.035156 24.160156 2.117188 C 21.625 2.613281 19.699219 4.621094 19.246094 7.226562 C 18.921875 9.089844 19.355469 10.949219 20.542969 12.75 C 21.417969 14.085938 22.332031 15.261719 23.261719 16.242188 Z M 20.59375 7.464844 C 20.949219 5.425781 22.449219 3.855469 24.421875 3.46875 C 24.75 3.402344 25.082031 3.371094 25.410156 3.371094 C 27.160156 3.371094 28.730469 4.257812 29.617188 5.738281 L 29.703125 5.886719 C 29.996094 6.382812 30.117188 6.585938 30.515625 6.585938 C 30.90625 6.582031 31.027344 6.378906 31.320312 5.886719 L 31.410156 5.738281 C 32.292969 4.257812 33.863281 3.371094 35.613281 3.371094 C 35.941406 3.371094 36.273438 3.402344 36.601562 3.46875 C 38.574219 3.855469 40.074219 5.425781 40.429688 7.464844 C 40.691406 8.96875 40.324219 10.492188 39.339844 11.992188 C 38.496094 13.277344 37.652344 14.359375 36.769531 15.292969 C 35.085938 17.074219 33.167969 18.558594 31.140625 20.132812 C 30.929688 20.296875 30.722656 20.457031 30.511719 20.621094 C 30.300781 20.457031 30.09375 20.296875 29.886719 20.132812 C 27.855469 18.558594 25.9375 17.074219 24.253906 15.292969 C 23.378906 14.371094 22.515625 13.257812 21.683594 11.992188 C 20.699219 10.492188 20.332031 8.96875 20.59375 7.464844 Z M 20.59375 7.464844 " fill-opacity="1" fill-rule="nonzero"/></g><path fill="#de8374" d="M 44.335938 21.964844 C 44.113281 21.722656 43.261719 21.0625 41.210938 22.09375 L 34.28125 25.792969 C 34.242188 25.746094 34.203125 25.699219 34.160156 25.65625 C 33.007812 24.460938 30.421875 24.511719 28.347656 24.550781 C 27.574219 24.566406 26.617188 24.585938 26.367188 24.492188 C 25.101562 24.003906 22.570312 23.082031 22.546875 23.074219 C 14.339844 20.054688 11.417969 24.210938 11.296875 24.390625 C 9.90625 26.457031 8.347656 27.269531 8.332031 27.277344 L 8.945312 28.507812 C 9.023438 28.472656 10.824219 27.546875 12.429688 25.164062 C 12.453125 25.128906 14.863281 21.714844 22.078125 24.367188 C 22.105469 24.375 24.625 25.292969 25.878906 25.777344 C 26.355469 25.960938 27.097656 25.953125 28.375 25.929688 C 29.992188 25.898438 32.4375 25.847656 33.175781 26.613281 C 33.328125 26.769531 33.386719 26.953125 33.375 27.207031 C 33.34375 27.851562 33.148438 28.507812 31.214844 28.808594 C 29.484375 29.074219 26.8125 28.992188 23.113281 28.875 C 22.1875 28.847656 21.203125 28.816406 20.15625 28.789062 L 20.117188 30.167969 C 21.164062 30.195312 22.148438 30.222656 23.070312 30.253906 C 24.957031 30.3125 26.582031 30.363281 27.96875 30.363281 C 29.351562 30.363281 30.496094 30.3125 31.425781 30.167969 C 32.796875 29.957031 34.632812 29.425781 34.742188 27.273438 C 34.746094 27.21875 34.742188 27.160156 34.742188 27.105469 L 41.835938 23.316406 C 42.871094 22.796875 43.292969 22.910156 43.363281 22.9375 C 43.550781 23.128906 43.570312 23.273438 43.570312 23.367188 C 43.566406 23.660156 43.308594 23.976562 43.207031 24.078125 L 38.714844 27.976562 C 36.453125 29.84375 33.878906 30.691406 33.851562 30.703125 L 30.09375 31.925781 L 30.0625 31.9375 C 27.058594 33.074219 24.46875 32.972656 24.445312 32.96875 L 18.230469 32.96875 C 16.382812 32.96875 13.996094 35.1875 13.730469 35.4375 L 14.671875 36.441406 C 15.523438 35.628906 17.242188 34.347656 18.230469 34.347656 L 24.394531 34.347656 C 24.667969 34.359375 27.355469 34.433594 30.53125 33.234375 L 34.269531 32.011719 C 34.382812 31.976562 37.113281 31.082031 39.597656 29.03125 L 44.132812 25.09375 C 44.210938 25.019531 44.921875 24.335938 44.9375 23.398438 C 44.949219 22.875 44.742188 22.378906 44.335938 21.964844 Z M 44.335938 21.964844 " fill-opacity="1" fill-rule="nonzero"/><g clip-path="url(#898e65e9fe)"><path fill="#de8374" d="M 0.0390625 30.738281 L 8.558594 43.238281 L 14.207031 38.246094 L 6.246094 26.710938 Z M 8.8125 41.179688 L 1.964844 31.125 L 5.875 28.589844 L 12.386719 38.023438 Z M 8.8125 41.179688 " fill-opacity="1" fill-rule="nonzero"/></g><path fill="#de8374" d="M 10.183594 37.296875 C 10.269531 37.421875 10.328125 37.558594 10.363281 37.707031 C 10.394531 37.855469 10.398438 38.003906 10.371094 38.15625 C 10.34375 38.304688 10.289062 38.445312 10.207031 38.574219 C 10.125 38.703125 10.019531 38.808594 9.898438 38.894531 C 9.773438 38.984375 9.636719 39.042969 9.488281 39.074219 C 9.339844 39.109375 9.191406 39.109375 9.042969 39.082031 C 8.894531 39.054688 8.753906 39 8.625 38.917969 C 8.5 38.835938 8.390625 38.734375 8.304688 38.609375 C 8.21875 38.484375 8.160156 38.34375 8.128906 38.195312 C 8.09375 38.046875 8.09375 37.898438 8.121094 37.746094 C 8.144531 37.597656 8.199219 37.457031 8.28125 37.332031 C 8.363281 37.203125 8.46875 37.09375 8.59375 37.007812 C 8.71875 36.921875 8.851562 36.859375 9 36.828125 C 9.148438 36.796875 9.296875 36.792969 9.449219 36.820312 C 9.597656 36.847656 9.734375 36.902344 9.863281 36.984375 C 9.988281 37.066406 10.097656 37.171875 10.183594 37.296875 Z M 10.183594 37.296875 " fill-opacity="1" fill-rule="nonzero"/></svg>