<svg xmlns="http://www.w3.org/2000/svg" xmlns:xlink="http://www.w3.org/1999/xlink" width="60" zoomAndPan="magnify" viewBox="0 0 45 44.999999" height="60" preserveAspectRatio="xMidYMid meet" version="1.0"><defs><clipPath id="967f0f7400"><path d="M 4.5 0.675781 L 40.5 0.675781 L 40.5 44.925781 L 4.5 44.925781 Z M 4.5 0.675781 " clip-rule="nonzero"/></clipPath></defs><g clip-path="url(#967f0f7400)"><path fill="#de8374" d="M 38.515625 25.808594 C 38.070312 28.773438 36.394531 31.695312 33.386719 34.746094 C 30.894531 37.261719 27.515625 39.882812 22.464844 43.203125 C 13.484375 37.289062 7.335938 32.042969 6.414062 25.808594 C 5.980469 22.910156 6.648438 20.261719 8.292969 18.347656 C 9.835938 16.546875 12.15625 15.515625 14.652344 15.515625 C 16.714844 15.515625 18.546875 16.28125 20.097656 17.796875 C 21.242188 18.929688 21.800781 20.074219 21.804688 20.082031 C 21.925781 20.339844 22.179688 20.5 22.460938 20.5 L 22.464844 20.5 C 22.742188 20.5 23 20.339844 23.121094 20.082031 C 23.210938 19.898438 25.371094 15.515625 30.273438 15.515625 C 32.773438 15.515625 35.089844 16.546875 36.632812 18.347656 C 38.277344 20.261719 38.945312 22.910156 38.515625 25.808594 Z M 27.625 14.441406 C 24.972656 15.246094 23.300781 17.132812 22.460938 18.351562 C 22.136719 17.882812 21.691406 17.316406 21.117188 16.746094 C 19.992188 15.648438 18.699219 14.871094 17.304688 14.441406 L 17.304688 10.648438 C 17.304688 7.789062 19.617188 5.460938 22.460938 5.460938 C 25.308594 5.460938 27.625 7.789062 27.625 10.648438 Z M 14.113281 10.648438 C 14.113281 6.019531 17.855469 2.253906 22.460938 2.253906 C 24.695312 2.253906 26.789062 3.128906 28.363281 4.71875 C 29.941406 6.304688 30.8125 8.410156 30.8125 10.648438 L 30.8125 14.074219 C 30.636719 14.0625 30.457031 14.046875 30.273438 14.046875 C 29.859375 14.046875 29.464844 14.078125 29.085938 14.128906 L 29.085938 10.648438 C 29.085938 6.976562 26.113281 3.992188 22.460938 3.992188 C 18.8125 3.992188 15.84375 6.976562 15.84375 10.648438 L 15.84375 14.132812 C 15.453125 14.082031 15.054688 14.046875 14.652344 14.046875 C 14.472656 14.046875 14.292969 14.0625 14.113281 14.074219 Z M 37.742188 17.386719 C 36.34375 15.757812 34.414062 14.667969 32.273438 14.246094 L 32.273438 10.648438 C 32.273438 8.019531 31.25 5.546875 29.398438 3.679688 C 27.550781 1.816406 25.085938 0.785156 22.460938 0.785156 C 17.050781 0.785156 12.652344 5.210938 12.652344 10.648438 L 12.652344 14.246094 C 10.511719 14.667969 8.582031 15.757812 7.1875 17.386719 C 5.261719 19.632812 4.472656 22.699219 4.964844 26.027344 C 5.984375 32.890625 12.535156 38.453125 22.0625 44.695312 C 22.1875 44.777344 22.324219 44.816406 22.464844 44.816406 C 22.601562 44.816406 22.738281 44.777344 22.863281 44.699219 C 28.226562 41.191406 31.789062 38.441406 34.421875 35.777344 C 37.660156 32.5 39.46875 29.3125 39.960938 26.027344 C 40.453125 22.699219 39.664062 19.632812 37.742188 17.386719 " fill-opacity="1" fill-rule="nonzero"/></g><path fill="#de8374" d="M 23.640625 29.539062 L 23.304688 29.753906 L 23.304688 33.4375 C 23.304688 33.898438 22.929688 34.277344 22.464844 34.277344 C 22 34.277344 21.621094 33.898438 21.621094 33.4375 L 21.621094 29.753906 L 21.285156 29.539062 C 20.652344 29.128906 20.273438 28.433594 20.273438 27.683594 C 20.273438 26.46875 21.253906 25.480469 22.464844 25.480469 C 23.671875 25.480469 24.652344 26.46875 24.652344 27.683594 C 24.652344 28.433594 24.273438 29.128906 23.640625 29.539062 Z M 22.464844 24.015625 C 20.449219 24.015625 18.8125 25.660156 18.8125 27.683594 C 18.8125 28.796875 19.3125 29.835938 20.160156 30.527344 L 20.160156 33.4375 C 20.160156 34.707031 21.195312 35.746094 22.464844 35.746094 C 23.734375 35.746094 24.765625 34.707031 24.765625 33.4375 L 24.765625 30.527344 C 25.617188 29.835938 26.113281 28.796875 26.113281 27.683594 C 26.113281 25.660156 24.476562 24.015625 22.464844 24.015625 " fill-opacity="1" fill-rule="nonzero"/></svg>